<svg viewBox="0 0 720 360" xmlns="http://www.w3.org/2000/svg" font-family="system-ui,-apple-system,'Segoe UI',sans-serif">
  <rect x="1" y="1" width="718" height="358" rx="10" fill="#fcfcfb" stroke="rgba(11,11,11,0.10)"/>
  <text x="28" y="38" font-size="17" font-weight="700" fill="#0b0b0b">AI・半導体株、7月にリーマン後最大の急落</text>

  <rect x="28" y="60" width="200" height="110" rx="8" fill="#f9f9f7" stroke="#e1e0d9"/>
  <text x="128" y="84" font-size="12" fill="#52514e" text-anchor="middle">SOX指数（7月・月間）</text>
  <text x="128" y="130" font-size="32" font-weight="700" fill="#d03b3b" text-anchor="middle">-20.6%</text>
  <text x="128" y="152" font-size="11" fill="#898781" text-anchor="middle">2008年10月以来の下げ幅</text>

  <rect x="240" y="60" width="200" height="110" rx="8" fill="#f9f9f7" stroke="#e1e0d9"/>
  <text x="340" y="84" font-size="12" fill="#52514e" text-anchor="middle">日経平均（8/6終値）</text>
  <text x="340" y="130" font-size="26" font-weight="700" fill="#d03b3b" text-anchor="middle">65,683円</text>
  <text x="340" y="152" font-size="11" fill="#898781" text-anchor="middle">前日比 -617.18円・3日ぶり反落</text>

  <rect x="452" y="60" width="240" height="110" rx="8" fill="#f9f9f7" stroke="#e1e0d9"/>
  <text x="572" y="84" font-size="12" fill="#52514e" text-anchor="middle">8/6の主な値下がり銘柄</text>
  <text x="572" y="112" font-size="13" fill="#0b0b0b" text-anchor="middle">太陽誘電　10%超安</text>
  <text x="572" y="134" font-size="13" fill="#0b0b0b" text-anchor="middle">東京エレクトロン　寄与度-318円</text>
  <text x="572" y="156" font-size="13" fill="#0b0b0b" text-anchor="middle">村田製作所　寄与度-53.50</text>

  <text x="28" y="200" font-size="12.5" font-weight="700" fill="#52514e">日経平均の推移（8月第1週）</text>
  <line x1="30" y1="290" x2="692" y2="290" stroke="#c3c2b7" stroke-width="1.5"/>
  <g font-size="11" text-anchor="middle">
    <rect x="80" y="230" width="50" height="60" fill="#2a78d6" opacity="0.85"/>
    <text x="105" y="222" fill="#0b0b0b" font-weight="700">63,957円</text>
    <text x="105" y="306" fill="#52514e">8/4</text>

    <rect x="220" y="205" width="50" height="85" fill="#2a78d6" opacity="0.85"/>
    <text x="245" y="197" fill="#0b0b0b" font-weight="700">66,300円</text>
    <text x="245" y="306" fill="#52514e">8/5</text>

    <rect x="360" y="245" width="50" height="45" fill="#d03b3b"/>
    <text x="385" y="237" fill="#d03b3b" font-weight="700">65,683円</text>
    <text x="385" y="306" fill="#52514e">8/6</text>
  </g>

  <text x="28" y="318" font-size="12.5" fill="#0b0b0b">📍 米国のAI相場調整（SOX -20.6%）が波及し、日本株もAI・半導体関連から売られる展開に。</text>
  <rect x="28" y="330" width="664" height="24" rx="6" fill="#fcfcfb" stroke="#c3c2b7"/>
  <text x="42" y="346" font-size="11" fill="#898781">出典: 日本経済新聞（8/6）・財経新聞（8/3・8/6）・株式新聞Web（8/6）</text>
</svg>
